# xmcd
#
# Track frame offsets:
#	150
#	11482
#	27435
#	42676
#	56484
#	69508
#	82334
#	96332
#	108935
#	123750
#	135166
#	149022
#	165980
#	178375
#	193146
#	207722
#
# Disc length: 2906 seconds
#
# Revision: 1
# Processed by: cddbd v1.5.2PL0 Copyright (c) Steve Scherf et al.
# Submitted via: audiograbber 1.83.01
#
DISCID=ef0b5810
DTITLE=Chartbusters - CB5076-3
DYEAR=1900
DGENRE=
TTITLE0=Lynn, Loretta - I Wanna Be Free
TTITLE1=Lynn, Loretta - I Can't Feel You Anymore
TTITLE2=Lynn, Loretta - Country In My Genes
TTITLE3=Lynn, Loretta - What Kind Of Girl Do You Think I Am
TTITLE4=Lynn, Loretta - The Pill
TTITLE5=Lynn, Loretta - You're The Reason Our Kids Are Ugly
TTITLE6=Lynn, Loretta - Feelin's
TTITLE7=Lynn, Loretta - Love Is The Foundation
TTITLE8=Lynn, Loretta - When The Tingle Becomes A Chill
TTITLE9=Lynn, Loretta - Dear Uncle Sam
TTITLE10=Lynn, Loretta - I've Got A Picture Of Us In Mind
TTITLE11=Lynn, Loretta - Table For Two
TTITLE12=Lynn, Loretta - In The Sewwt By And By
TTITLE13=Lynn, Loretta - Peace In The Valley
TTITLE14=Lynn, Loretta - How Great Thou Art
TTITLE15=Lynn, Loretta - Will The Circle Be Unbroken
EXTD=
EXTT0=
EXTT1=
EXTT2=
EXTT3=
EXTT4=
EXTT5=
EXTT6=
EXTT7=
EXTT8=
EXTT9=
EXTT10=
EXTT11=
EXTT12=
EXTT13=
EXTT14=
EXTT15=
PLAYORDER=
